<svg xmlns="http://www.w3.org/2000/svg" width="283.114" height="226.579" viewBox="0 0 283.114 226.579">
  <g id="undraw_Timeline_re_aw6g" transform="translate(0)">
    <path id="Path_2078" data-name="Path 2078" d="M946.58,716.18a116.171,116.171,0,0,1-1.095,14.925c-.024.174-.05.347-.074.521l-46.763-.261c-.137-.173-.272-.347-.4-.524-.437-.585-.846-1.186-1.221-1.808-1.805-3-2.632-6.505-1.8-8.926l.015-.038a4.248,4.248,0,0,1,.829-1.44c1.888-2.126,5.707-1.771,9.172-.056-3.108-3.4-5.583-7.695-5.771-11.526-.184-3.737,1.77-6.407,3.89-8.676.07-.075.139-.148.209-.221.034-.038.07-.073.1-.11,1.654-1.729,3.582-3.434,6.373-3.227,3.061.227,6.454,2.79,8.833,5.778a49.956,49.956,0,0,1,5.563,9.686,39.1,39.1,0,0,0,5.916,9.527c-3.488-4.411-6.3-9.431-7.338-14.312s-.125-9.57,2.984-11.869a7.271,7.271,0,0,1,3.185-1.285c.134-.022.27-.04.409-.056a12.762,12.762,0,0,1,9.236,3.047,21.262,21.262,0,0,1,6.561,10.188A34.719,34.719,0,0,1,946.58,716.18Z" transform="translate(-663.472 -505.114)" fill="#f2f2f2"/>
    <path id="Path_2079" data-name="Path 2079" d="M917.3,795.027l-.894,0q-.426-.266-.856-.526c-.177-.112-.357-.22-.536-.33q-4.449-2.717-8.954-5.213t-9.046-4.765a.375.375,0,0,1-.215-.428.106.106,0,0,1,.015-.031c.042-.079.137-.112.275-.044.372.186.746.373,1.117.563q4.558,2.306,9.077,4.843t8.981,5.295l.188.116Z" transform="translate(-664.786 -568.68)" fill="#fff"/>
    <path id="Path_2080" data-name="Path 2080" d="M946.79,745.051l-.553,0c-.125-.174-.247-.349-.372-.524q-4.4-6.163-8.788-12.327-7.195-10.09-14.385-20.18a.357.357,0,0,1-.062-.122c-.041-.149.068-.236.209-.221a.42.42,0,0,1,.292.186l8.065,11.313,14.312,20.078.91,1.276C946.544,744.7,946.668,744.877,946.79,745.051Z" transform="translate(-682.747 -518.64)" fill="#fff"/>
    <path id="Path_2081" data-name="Path 2081" d="M1018.044,728.233c-.028.932-.09,1.849-.17,2.757l-.047.521-.58,0c.018-.174.035-.347.051-.521.123-1.312.21-2.64.221-4a55.847,55.847,0,0,0-1.1-11.257,70.094,70.094,0,0,0-3.405-11.7,80.322,80.322,0,0,0-5.571-11.571.309.309,0,0,1-.051-.206c.024-.165.244-.214.409-.056a.483.483,0,0,1,.083.105q.4.69.788,1.385A80.268,80.268,0,0,1,1014,705.3a69.755,69.755,0,0,1,3.175,11.713A55.1,55.1,0,0,1,1018.044,728.233Z" transform="translate(-741.683 -505.033)" fill="#fff"/>
    <path id="Path_2082" data-name="Path 2082" d="M702.825,766.033a60.707,60.707,0,0,1-.572,7.8c-.013.091-.026.182-.039.272l-24.437-.137c-.072-.09-.142-.181-.211-.274-.228-.306-.442-.62-.638-.945a6.053,6.053,0,0,1-.943-4.665l.008-.02a2.22,2.22,0,0,1,.433-.753c.987-1.111,2.982-.926,4.793-.029a10.57,10.57,0,0,1-3.016-6.023,6.086,6.086,0,0,1,2.033-4.534l.109-.115.054-.058a4.186,4.186,0,0,1,3.33-1.687c1.6.118,3.373,1.458,4.616,3.019a26.11,26.11,0,0,1,2.907,5.062,20.427,20.427,0,0,0,3.091,4.979,19.041,19.041,0,0,1-3.835-7.479c-.543-2.551-.065-5,1.559-6.2a3.8,3.8,0,0,1,1.664-.672c.07-.012.141-.021.214-.029a6.669,6.669,0,0,1,4.827,1.592,11.111,11.111,0,0,1,3.429,5.324A18.164,18.164,0,0,1,702.825,766.033Z" transform="translate(-511.155 -547.728)" fill="#f2f2f2"/>
    <path id="Path_2083" data-name="Path 2083" d="M687.523,807.237l-.467,0q-.223-.139-.447-.275c-.093-.058-.187-.115-.28-.172q-2.325-1.42-4.679-2.724t-4.727-2.49a.2.2,0,0,1-.113-.224.056.056,0,0,1,.008-.016c.022-.042.071-.059.143-.023.194.1.39.195.584.294q2.382,1.205,4.744,2.531t4.693,2.767l.1.061Z" transform="translate(-511.842 -580.946)" fill="#fff"/>
    <path id="Path_2084" data-name="Path 2084" d="M702.933,781.121l-.289,0-.194-.274-4.593-6.442q-3.76-5.273-7.517-10.546a.188.188,0,0,1-.033-.064c-.021-.078.036-.124.109-.115a.219.219,0,0,1,.153.1l4.215,5.912,7.479,10.492.476.667C702.8,780.938,702.869,781.03,702.933,781.121Z" transform="translate(-521.227 -554.797)" fill="#fff"/>
    <path id="Path_2085" data-name="Path 2085" d="M740.17,772.332c-.015.487-.047.966-.089,1.441l-.025.272-.3,0c.009-.091.019-.182.027-.272.064-.686.109-1.38.116-2.092a29.184,29.184,0,0,0-.575-5.883,36.625,36.625,0,0,0-1.779-6.112,41.981,41.981,0,0,0-2.911-6.047.162.162,0,0,1-.027-.107c.012-.086.128-.112.214-.029a.246.246,0,0,1,.043.055q.21.361.412.724a41.96,41.96,0,0,1,2.787,6.068,36.459,36.459,0,0,1,1.659,6.121A28.809,28.809,0,0,1,740.17,772.332Z" transform="translate(-552.026 -547.686)" fill="#fff"/>
    <path id="Path_2086" data-name="Path 2086" d="M186.067,335.278h-45.8a4.782,4.782,0,0,1-4.776-4.776V275.491a4.782,4.782,0,0,1,4.776-4.776h45.8a4.782,4.782,0,0,1,4.776,4.776V330.5a4.782,4.782,0,0,1-4.776,4.776Zm-45.8-63.954a4.171,4.171,0,0,0-4.167,4.167V330.5a4.171,4.171,0,0,0,4.167,4.167h45.8a4.171,4.171,0,0,0,4.167-4.167V275.491a4.171,4.171,0,0,0-4.167-4.167Z" transform="translate(-135.493 -212.062)" fill="#3f3d56"/>
    <path id="Path_2087" data-name="Path 2087" d="M203.9,266.31H182.486a3.814,3.814,0,0,1-3.809-3.809v-.816a3.814,3.814,0,0,1,3.809-3.809H203.9a3.814,3.814,0,0,1,3.809,3.809v.816A3.814,3.814,0,0,1,203.9,266.31Z" transform="translate(-165.517 -203.135)" fill="#ccc"/>
    <path id="Path_2088" data-name="Path 2088" d="M194.448,373.866h-42a2.168,2.168,0,1,1,0-4.336h42a2.168,2.168,0,0,1,0,4.336Z" transform="translate(-145.772 -280.764)" fill="#6c63ff"/>
    <path id="Path_2089" data-name="Path 2089" d="M194.448,404.1h-42a2.168,2.168,0,1,1,0-4.336h42a2.168,2.168,0,0,1,0,4.336Z" transform="translate(-145.772 -301.784)" fill="#6c63ff"/>
    <path id="Path_2090" data-name="Path 2090" d="M208.859,343.632H189.348a2.168,2.168,0,0,1,0-4.336h19.511a2.168,2.168,0,1,1,0,4.336Z" transform="translate(-171.429 -259.743)" fill="#6c63ff"/>
    <path id="Path_2091" data-name="Path 2091" d="M505.3,155.652H459.5a4.782,4.782,0,0,1-4.776-4.776V95.865a4.782,4.782,0,0,1,4.776-4.776h45.8a4.782,4.782,0,0,1,4.776,4.776v55.011A4.782,4.782,0,0,1,505.3,155.652ZM459.5,91.7a4.171,4.171,0,0,0-4.166,4.167v55.011a4.171,4.171,0,0,0,4.167,4.167h45.8a4.171,4.171,0,0,0,4.167-4.167V95.865A4.171,4.171,0,0,0,505.3,91.7Z" transform="translate(-357.443 -87.176)" fill="#3f3d56"/>
    <path id="Path_2092" data-name="Path 2092" d="M523.132,86.684H501.721a3.814,3.814,0,0,1-3.809-3.809v-.816a3.814,3.814,0,0,1,3.809-3.809h21.411a3.814,3.814,0,0,1,3.809,3.809v.816A3.814,3.814,0,0,1,523.132,86.684Z" transform="translate(-387.466 -78.25)" fill="#ccc"/>
    <path id="Path_2093" data-name="Path 2093" d="M513.684,194.24h-42a2.168,2.168,0,1,1,0-4.336h42a2.168,2.168,0,0,1,0,4.336Z" transform="translate(-367.721 -155.878)" fill="#6c63ff"/>
    <path id="Path_2094" data-name="Path 2094" d="M513.684,224.474h-42a2.168,2.168,0,1,1,0-4.336h42a2.168,2.168,0,0,1,0,4.336Z" transform="translate(-367.721 -176.898)" fill="#6c63ff"/>
    <path id="Path_2095" data-name="Path 2095" d="M528.094,164.006H508.583a2.168,2.168,0,0,1,0-4.336h19.511a2.168,2.168,0,0,1,0,4.336Z" transform="translate(-393.378 -134.858)" fill="#6c63ff"/>
    <path id="Path_2096" data-name="Path 2096" d="M759.374,476.432l-40.213,21.915a4.782,4.782,0,0,1-6.479-1.908l-26.325-48.3a4.782,4.782,0,0,1,1.908-6.479l40.213-21.916a4.782,4.782,0,0,1,6.479,1.908l26.325,48.3a4.782,4.782,0,0,1-1.908,6.479Zm-70.818-34.24a4.171,4.171,0,0,0-1.665,5.652l26.325,48.3a4.171,4.171,0,0,0,5.652,1.665L759.082,475.9a4.171,4.171,0,0,0,1.665-5.652l-26.324-48.3a4.171,4.171,0,0,0-5.652-1.665Z" transform="translate(-518.079 -315.268)" fill="#3f3d56"/>
    <path id="Path_2097" data-name="Path 2097" d="M741.24,435.288l-18.8,10.246a3.814,3.814,0,0,1-5.168-1.522l-.39-.716a3.814,3.814,0,0,1,1.522-5.168l18.8-10.246a3.814,3.814,0,0,1,5.168,1.522l.39.717A3.814,3.814,0,0,1,741.24,435.288Z" transform="translate(-539.383 -321.011)" fill="#ccc"/>
    <path id="Path_2098" data-name="Path 2098" d="M783.073,514.016l-36.882,20.1a2.168,2.168,0,1,1-2.075-3.807L781,510.208a2.168,2.168,0,0,1,2.075,3.807Z" transform="translate(-557.854 -378.387)" fill="#ccc"/>
    <path id="Path_2099" data-name="Path 2099" d="M797.542,540.563l-36.882,20.1a2.168,2.168,0,0,1-2.075-3.807l36.882-20.1a2.168,2.168,0,0,1,2.075,3.807Z" transform="translate(-567.913 -396.844)" fill="#ccc"/>
    <path id="Path_2100" data-name="Path 2100" d="M781.259,505.127l-17.132,9.337a2.168,2.168,0,0,1-2.075-3.807l17.132-9.337a2.168,2.168,0,1,1,2.075,3.807Z" transform="translate(-570.324 -372.207)" fill="#ccc"/>
    <rect id="Rectangle_239" data-name="Rectangle 239" width="24.769" height="0.609" transform="matrix(0.865, -0.502, 0.502, 0.865, 63.667, 62.254)" fill="#3f3d56"/>
    <path id="Path_2101" data-name="Path 2101" d="M275.231,162.4l3.026-5.271-6.078.014Z" transform="translate(-189.233 -109.247)" fill="#3f3d56"/>
    <path id="Path_2102" data-name="Path 2102" d="M434.209,412.319a.3.3,0,0,1-.139-.034l-82.327-42.29a.3.3,0,0,1,.279-.542l82.327,42.29a.3.3,0,0,1-.139.576Z" transform="translate(-285.727 -280.686)" fill="#3f3d56"/>
    <path id="Path_2103" data-name="Path 2103" d="M480.081,426.144l6.07-.3-3.293-5.108Z" transform="translate(-333.778 -292.52)" fill="#3f3d56"/>
    <path id="Path_2104" data-name="Path 2104" d="M893.211,559.19a3.274,3.274,0,0,1-1.171-4.882l-2.448-23.935h5.29l1.946,23.371a3.292,3.292,0,0,1-3.617,5.445Z" transform="translate(-659.784 -392.591)" fill="#a0616a"/>
    <circle id="Ellipse_48" data-name="Ellipse 48" cx="7.485" cy="7.485" r="7.485" transform="translate(221.085 109.604)" fill="#a0616a"/>
    <path id="Path_2105" data-name="Path 2105" d="M851.861,519.059l-11.171-2.439a1.375,1.375,0,0,1-1.077-1.269,44.865,44.865,0,0,1,1.7-14.961,9.066,9.066,0,0,1,11.649-5.775h0a9.07,9.07,0,0,1,5.151,12.522,75.678,75.678,0,0,0-4.637,10.949,1.369,1.369,0,0,1-1.613.973Z" transform="translate(-624.994 -367.369)" fill="#6c63ff"/>
    <path id="Path_2106" data-name="Path 2106" d="M697.334,698.214H693.6L691.821,683.8h5.514Z" transform="translate(-480.991 -475.417)" fill="#a0616a"/>
    <path id="Path_2107" data-name="Path 2107" d="M678.546,727.588h7.205v4.537H674.009A4.537,4.537,0,0,1,678.546,727.588Z" transform="translate(-468.607 -505.858)" fill="#2f2e41"/>
    <path id="Path_2108" data-name="Path 2108" d="M805.641,686.392l-3.274,1.8-8.5-11.771,4.832-2.657Z" transform="translate(-551.938 -468.437)" fill="#a0616a"/>
    <path id="Path_2109" data-name="Path 2109" d="M4.537,0h7.205V4.537H0A4.537,4.537,0,0,1,4.537,0Z" transform="translate(243.601 222.291) rotate(-28.801)" fill="#2f2e41"/>
    <path id="Path_2110" data-name="Path 2110" d="M826.606,628.363l-5.752-.443a1.367,1.367,0,0,1-1.26-1.234c-.82-8.55-4.416-51.876,5.311-65.216l.027-.037.043-.016c.087-.032,8.762-3.125,13.738,2.544a1.37,1.37,0,0,1,.264,1.334l-.19.57a1.061,1.061,0,0,0,.151.967c1.381,1.867,6.03,9.058,7.857,23.2a1.056,1.056,0,0,0,.069.263l13.489,33.137a1.371,1.371,0,0,1-.782,1.8l-4.245,1.617a1.379,1.379,0,0,1-1.689-.62L834.167,590.9a.762.762,0,0,0-1.423.27l-4.672,36.005a1.371,1.371,0,0,1-1.359,1.195Q826.66,628.367,826.606,628.363Z" transform="translate(-610.195 -413.568)" fill="#2f2e41"/>
    <path id="Path_2111" data-name="Path 2111" d="M775.641,485.366a3.211,3.211,0,0,1,.073.5l13.091,7.552,3.182-1.832,3.392,4.441-5.318,3.79a2.438,2.438,0,0,1-2.925-.071l-13.5-10.65a3.2,3.2,0,1,1,2-3.73Z" transform="translate(-576.169 -359.583)" fill="#a0616a"/>
    <path id="Path_2112" data-name="Path 2112" d="M833.767,503.351a1.37,1.37,0,0,1,.674-.922l6.007-3.359a3.809,3.809,0,0,1,4.671,6.017l-4.79,4.974a1.371,1.371,0,0,1-2.073-.114l-4.231-5.484A1.37,1.37,0,0,1,833.767,503.351Z" transform="translate(-620.951 -370.27)" fill="#6c63ff"/>
    <path id="Path_2113" data-name="Path 2113" d="M883.062,520.638a1.37,1.37,0,0,1-.508-1.023l-.216-6.879a3.809,3.809,0,1,1,7.492-1.375l2.21,6.542a1.371,1.371,0,0,1-1.056,1.788l-6.816,1.231A1.37,1.37,0,0,1,883.062,520.638Z" transform="translate(-654.696 -377.202)" fill="#6c63ff"/>
    <path id="Path_2114" data-name="Path 2114" d="M863.822,435.749c-1.924,1.317-4.45,2.67-6.415,1.268a3.575,3.575,0,0,1-1.173-4.122c.941-2.69,3.526-3.875,6-4.783,3.213-1.18,6.712-2.119,10.029-1.274s6.249,4.057,5.65,7.428c-.482,2.71-3.038,4.966-2.675,7.695.365,2.746,3.454,4.192,6.181,4.683s5.778.649,7.738,2.607c2.5,2.5,1.876,6.964-.477,9.6s-5.9,3.834-9.342,4.647c-4.557,1.077-9.486,1.643-13.815-.144s-7.7-6.6-6.443-11.111a15.5,15.5,0,0,1,2.983-5.085,14.169,14.169,0,0,0,2.887-5.132,5.334,5.334,0,0,0-.964-4.667,1.352,1.352,0,0,1-.181-1.581Z" transform="translate(-636.437 -320.382)" fill="#2f2e41"/>
    <path id="Path_2115" data-name="Path 2115" d="M796.213,820.359H680.1a.3.3,0,0,1,0-.609H796.213a.3.3,0,1,1,0,.609Z" transform="translate(-513.925 -593.781)" fill="#3f3d56"/>
  </g>
</svg>
