<svg xmlns="http://www.w3.org/2000/svg" width="42.737" height="58.841" viewBox="0 0 42.737 58.841">
  <g id="Group_26437" data-name="Group 26437" transform="translate(-167.586 -20)">
    <path id="Path_532" data-name="Path 532" d="M49.051,310.076a1.006,1.006,0,0,0-1.374-.368l-1.743,1.006a1.007,1.007,0,0,1-1.374-.368,1.006,1.006,0,1,0-1.743,1.006,3.022,3.022,0,0,0,4.123,1.1l1.743-1.006a1.006,1.006,0,0,0,.368-1.374Zm0,0" transform="translate(292.375 -216.696) rotate(30)" fill="#fe4d00"/>
    <path id="Path_533" data-name="Path 533" d="M437.771,42.608l5.607,3.12a1.006,1.006,0,1,1-.979,1.758l-5.606-3.12a1.006,1.006,0,0,1,.978-1.758Zm0,0" transform="translate(-268.69 -18.207)" fill="#fe4d00"/>
    <path id="Path_534" data-name="Path 534" d="M440.809,137.7l3.887-1.042a1.006,1.006,0,1,1,.521,1.944l-3.888,1.042a1.006,1.006,0,1,1-.52-1.944Zm0,0" transform="translate(-271.14 -102.875)" fill="#fe4d00"/>
    <path id="Path_535" data-name="Path 535" d="M385.47.746l1.043,3.888a1.006,1.006,0,1,1-1.944.521l-1.042-3.888A1.006,1.006,0,1,1,385.47.746Zm0,0" transform="translate(-206.032 20)" fill="#fe4d00"/>
    <path id="Icon_awesome-id-badge" data-name="Icon awesome-id-badge" d="M30.032,0H4.29A4.291,4.291,0,0,0,0,4.29V41.473a4.291,4.291,0,0,0,4.29,4.29H30.032a4.291,4.291,0,0,0,4.29-4.29V4.29A4.291,4.291,0,0,0,30.032,0ZM12.871,2.86h8.581a1.43,1.43,0,0,1,0,2.86H12.871a1.43,1.43,0,0,1,0-2.86ZM17.161,14.3a5.72,5.72,0,1,1-5.72,5.72A5.726,5.726,0,0,1,17.161,14.3ZM27.172,35.466a1.874,1.874,0,0,1-2,1.716H9.153a1.874,1.874,0,0,1-2-1.716V33.75c0-2.842,2.69-5.148,6.006-5.148H13.6a9.206,9.206,0,0,0,7.115,0h.447c3.316,0,6.006,2.306,6.006,5.148Z" transform="translate(176 29)" fill="#3b82ff"/>
  </g>
</svg>
